<svg width="200" height="200" viewBox="0 0 200 200" xmlns="http://www.w3.org/2000/svg">
    <defs>
    <radialGradient id="starGradient" cx="50%" cy="50%" r="50%">
      <stop offset="0%" style="stop-color:white;stop-opacity:1" />
      <stop offset="100%" style="stop-color:yellow;stop-opacity:0" />
    </radialGradient>
  </defs>
  <g id="northStar">
    <!-- Central glow -->
    <circle cx="100" cy="100" r="80" fill="url(#starGradient)" />
    <circle cx="100" cy="100" r="60" fill="url(#starGradient)" />
    <!-- Star core -->
    <circle cx="100" cy="100" r="10" fill="white" />
        <!-- Star beams -->
    <path d="M100,20 L100,0 L110,20 Z" fill="white" />
    <path d="M100,180 L100,200 L110,180 Z" fill="white" />
    <path d="M20,100 L0,100 L20,110 Z" fill="white" />
    <path d="M180,100 L200,100 L180,110 Z" fill="white" />
    <path d="M50,50 L40,40 L60,60 Z" fill="white" />
    <path d="M150,150 L160,160 L140,140 Z" fill="white" />
    <path d="M50,150 L40,160 L60,140 Z" fill="white" />
    <path d="M150,50 L160,40 L140,60 Z" fill="white" />
  </g>

  
</svg>
