<svg width="200" height="200" viewBox="0 0 200 200" xmlns="http://www.w3.org/2000/svg">
    <defs>
        <radialGradient id="skyGradient" cx="50%" cy="50%" r="50%">
            <stop offset="0%" style="stop-color:darkblue;stop-opacity:1" />
            <stop offset="100%" style="stop-color:black;stop-opacity:1" />
        </radialGradient>
    </defs>
    <g id="starrySky">
        <!--Sky
        background-->
        <circle cx="100" cy="100" r="100" fill="url(#skyGradient)" />
    </g>
    <defs>
        <radialGradient id="starGradient" cx="50%" cy="50%" r="50%">
            <stop offset="0%" style="stop-color:white;stop-opacity:1" />
            <stop offset="100%" style="stop-color:yellow;stop-opacity:0" />
        </radialGradient>
    </defs>
    <g id="northStar">
        <!-- Central glow -->
        <!-- <circle cx="100" cy="100" r="80" fill="url(#starGradient)" /> -->
        <!-- <circle cx="100" cy="100" r="60" fill="url(#starGradient)" /> -->
        <!-- Star core -->
        <!-- <circle cx="100" cy="100" r="10" fill="white" /> -->
    </g>
    <g id="starrySky">
        <!-- Stars -->
        <circle cx="50" cy="50" r="2" fill="white" />
        <circle cx="70" cy="40" r="2" fill="white" />
        <circle cx="90" cy="60" r="2" fill="white" />
        <circle cx="110" cy="30" r="2" fill="white" />
        <circle cx="130" cy="70" r="2" fill="white" />
        <circle cx="150" cy="50" r="2" fill="white" />
        <circle cx="50" cy="150" r="2" fill="white" />
        <circle cx="70" cy="130" r="2" fill="white" />
        <circle cx="90" cy="170" r="2" fill="white" />
        <circle cx="110" cy="140" r="2" fill="white" />
        <circle cx="130" cy="160" r="2" fill="white" />
        <circle cx="150" cy="130" r="2" fill="white" />
        <circle cx="120" cy="100" r="3" fill="white" />
        <circle cx="80" cy="120" r="3" fill="white" />
        <circle cx="100" cy="80" r="3" fill="white" />
        <circle cx="140" cy="100" r="3" fill="white" />
    </g>


</svg>